<svg width="56" height="56" viewBox="0 0 56 56" fill="none" xmlns="http://www.w3.org/2000/svg">
<rect x="4" y="4" width="48" height="48" rx="24" fill="#FDEECB"/>
<path d="M37.2099 31.89C36.5737 33.3945 35.5787 34.7202 34.3118 35.7513C33.0449 36.7824 31.5447 37.4874 29.9424 37.8048C28.34 38.1221 26.6843 38.0421 25.1201 37.5718C23.5558 37.1014 22.1305 36.2551 20.9689 35.1067C19.8073 33.9582 18.9447 32.5428 18.4565 30.9839C17.9684 29.4251 17.8695 27.7705 18.1685 26.1646C18.4675 24.5588 19.1554 23.0506 20.172 21.772C21.1885 20.4934 22.5028 19.4833 23.9999 18.83M37.9999 28C37.9999 26.6868 37.7413 25.3864 37.2387 24.1732C36.7362 22.9599 35.9996 21.8575 35.071 20.9289C34.1424 20.0003 33.04 19.2638 31.8267 18.7612C30.6135 18.2587 29.3131 18 27.9999 18V28H37.9999Z" stroke="#AE8625" stroke-width="2" stroke-linecap="round" stroke-linejoin="round"/>
<rect x="4" y="4" width="48" height="48" rx="24" stroke="#F9F9F9" stroke-width="8"/>
</svg>
